<svg xmlns="http://www.w3.org/2000/svg" viewBox="0 0 200 100" width="200" height="100" role="img" aria-label="Wavelength orange slice logo">
  <g transform="rotate(180 100 50)">
    <path d="M 176.00 16.00 A 76.00 76.00 0 0 1 24.00 16.00 L 32.00 16.00 A 68.00 68.00 0 0 0 168.00 16.00 Z" fill="#FF8A1E"/>
    <g fill="#FFB22E">
      <path d="M 104.00 16.11 L 161.98 17.73 A 62.00 62.00 0 0 1 156.59 41.33 L 103.65 17.63 A 4.00 4.00 0 0 0 104.00 16.11 Z"/>
      <path d="M 103.55 17.84 L 155.09 44.45 A 62.00 62.00 0 0 1 139.99 63.38 L 102.58 19.06 A 4.00 4.00 0 0 0 103.55 17.84 Z"/>
      <path d="M 102.41 19.20 L 137.29 65.53 A 62.00 62.00 0 0 1 115.48 76.04 L 101.00 19.87 A 4.00 4.00 0 0 0 102.41 19.20 Z"/>
      <path d="M 100.78 19.92 L 112.10 76.81 A 62.00 62.00 0 0 1 87.90 76.81 L 99.22 19.92 A 4.00 4.00 0 0 0 100.78 19.92 Z"/>
      <path d="M 99.00 19.87 L 84.52 76.04 A 62.00 62.00 0 0 1 62.71 65.53 L 97.59 19.20 A 4.00 4.00 0 0 0 99.00 19.87 Z"/>
      <path d="M 97.42 19.06 L 60.01 63.38 A 62.00 62.00 0 0 1 44.91 44.45 L 96.45 17.84 A 4.00 4.00 0 0 0 97.42 19.06 Z"/>
      <path d="M 96.35 17.63 L 43.41 41.33 A 62.00 62.00 0 0 1 38.02 17.73 L 96.00 16.11 A 4.00 4.00 0 0 0 96.35 17.63 Z"/>
    </g>
  </g>
</svg>
